<?xml version="1.0" encoding="utf-8"?>
<!-- Generator: Adobe Illustrator 27.5.0, SVG Export Plug-In . SVG Version: 6.00 Build 0)  -->
<svg version="1.1" xmlns="http://www.w3.org/2000/svg" xmlns:xlink="http://www.w3.org/1999/xlink" x="0px" y="0px"
	 viewBox="0 0 182.5 140.4" style="enable-background:new 0 0 182.5 140.4;" xml:space="preserve">
<style type="text/css">
	.st0{fill:#231F20;}
	.st1{fill:#00B3C1;}
	.st2{fill:url(#SVGID_1_);}
	.st3{fill:url(#SVGID_00000143588704591050928030000017851314545804675459_);}
	.st4{fill-rule:evenodd;clip-rule:evenodd;fill:url(#SVGID_00000038380860130451752680000007052380395255188154_);}
	.st5{fill-rule:evenodd;clip-rule:evenodd;fill:url(#SVGID_00000135683719329797832110000015101949479874023296_);}
	.st6{fill-rule:evenodd;clip-rule:evenodd;fill:url(#SVGID_00000173856259956570023260000007993743721371527812_);}
	.st7{fill-rule:evenodd;clip-rule:evenodd;fill:url(#SVGID_00000074408905921620584290000017997975137688004781_);}
	.st8{display:none;}
	.st9{display:inline;fill:#231F20;}
	.st10{display:inline;fill:none;stroke:#231F20;stroke-width:13;stroke-linecap:round;stroke-miterlimit:10;}
</style>
<g id="Turas_Nua">
	<g>
		<path class="st0" d="M25.6,104.8h-1.8v-1.2h1.8v-4.1h1.4v4.1h2v1.2h-2v8.8h-1.4V104.8z"/>
		<path class="st0" d="M38.1,103.7v5c0,1.5,0.2,2.6,0.6,3.2c0.4,0.6,1.2,0.9,2.2,0.9c1,0,1.7-0.3,2.2-0.9s0.7-1.7,0.7-3.2v-5h1.4
			v5.7c0,1.5-0.4,2.7-1.1,3.5c-0.7,0.8-1.8,1.2-3.1,1.2c-1.4,0-2.4-0.4-3.2-1.2c-0.7-0.8-1.1-2-1.1-3.5v-5.7H38.1z"/>
		<path class="st0" d="M56,105.7c0.5-0.9,1-1.5,1.5-1.8c0.5-0.4,1.1-0.5,1.7-0.5c0.2,0,0.4,0,0.6,0.1c0.2,0,0.4,0.1,0.6,0.2
			l-0.4,1.3c-0.1,0-0.3-0.1-0.5-0.1c-0.2,0-0.3,0-0.5,0c-0.8,0-1.5,0.4-2.1,1.2c-0.6,0.8-0.9,1.7-0.9,2.9v4.9h-1.4v-10H56V105.7z"/>
		<path class="st0" d="M75,113.6v-1.8c-0.3,0.7-0.8,1.3-1.4,1.7c-0.6,0.4-1.3,0.6-2.1,0.6c-1.4,0-2.6-0.5-3.5-1.5
			c-0.9-1-1.3-2.3-1.3-3.9c0-1.6,0.4-2.9,1.3-3.9s2-1.5,3.3-1.5c0.8,0,1.6,0.2,2.2,0.6c0.6,0.4,1.1,0.9,1.4,1.6v-1.8h1.4v10H75z
			 M68.2,108.8c0,1.3,0.3,2.3,0.9,3c0.6,0.7,1.4,1,2.5,1c1,0,1.9-0.4,2.5-1.1c0.6-0.8,0.9-1.8,0.9-3.1c0-1.2-0.3-2.2-0.9-2.9
			s-1.4-1-2.5-1s-1.9,0.4-2.5,1.1S68.2,107.5,68.2,108.8z"/>
		<path class="st0" d="M84.7,111.9l1.3-0.8c0.2,0.6,0.5,1,0.9,1.3c0.4,0.3,0.9,0.4,1.5,0.4c0.6,0,1-0.1,1.4-0.4s0.5-0.7,0.5-1.2
			c0-0.8-0.7-1.4-2-1.9c-0.1-0.1-0.3-0.1-0.3-0.1c-1-0.4-1.8-0.8-2.2-1.3c-0.4-0.4-0.6-1-0.6-1.6c0-0.8,0.3-1.5,0.9-2.1
			s1.4-0.8,2.3-0.8c0.8,0,1.5,0.2,2.1,0.5c0.6,0.4,1,0.9,1.2,1.5l-1.3,0.7c-0.2-0.5-0.4-0.8-0.8-1.1s-0.8-0.4-1.3-0.4
			c-0.5,0-0.9,0.1-1.2,0.4c-0.3,0.3-0.5,0.6-0.5,1c0,0.4,0.2,0.8,0.5,1s0.9,0.6,1.9,0.9c1.1,0.4,1.8,0.8,2.2,1.2
			c0.4,0.4,0.6,1.1,0.6,1.9c0,0.9-0.3,1.6-1,2.2c-0.7,0.5-1.5,0.8-2.6,0.8c-0.8,0-1.6-0.2-2.2-0.6C85.4,113.1,84.9,112.6,84.7,111.9
			z"/>
		<path class="st0" d="M112.7,113.6v-10h1.3v1.5c0.4-0.6,0.9-1.1,1.5-1.4s1.3-0.5,2-0.5c1.1,0,2,0.3,2.6,0.9s0.9,1.5,0.9,2.6v6.8
			h-1.4v-6.1c0-1-0.2-1.7-0.6-2.2c-0.4-0.5-1.1-0.7-1.9-0.7c-1.1,0-1.8,0.3-2.3,0.9s-0.7,1.6-0.7,2.9v5.2H112.7z"/>
		<path class="st0" d="M131.8,103.7v5c0,1.5,0.2,2.6,0.6,3.2c0.4,0.6,1.2,0.9,2.2,0.9c1,0,1.7-0.3,2.2-0.9c0.4-0.6,0.7-1.7,0.7-3.2
			v-5h1.4v5.7c0,1.5-0.4,2.7-1.1,3.5c-0.7,0.8-1.8,1.2-3.1,1.2c-1.4,0-2.4-0.4-3.2-1.2c-0.7-0.8-1.1-2-1.1-3.5v-5.7H131.8z"/>
		<path class="st0" d="M155.7,113.6v-1.8c-0.3,0.7-0.8,1.3-1.4,1.7c-0.6,0.4-1.3,0.6-2.1,0.6c-1.4,0-2.6-0.5-3.5-1.5
			c-0.9-1-1.3-2.3-1.3-3.9c0-1.6,0.4-2.9,1.3-3.9c0.9-1,2-1.5,3.3-1.5c0.8,0,1.6,0.2,2.2,0.6c0.6,0.4,1.1,0.9,1.4,1.6v-1.8h1.4v10
			H155.7z M148.9,108.8c0,1.3,0.3,2.3,0.9,3c0.6,0.7,1.4,1,2.5,1c1,0,1.9-0.4,2.5-1.1c0.6-0.8,0.9-1.8,0.9-3.1
			c0-1.2-0.3-2.2-0.9-2.9c-0.6-0.7-1.4-1-2.5-1c-1,0-1.9,0.4-2.5,1.1S148.9,107.5,148.9,108.8z"/>
	</g>
</g>
<g id="Compound_Shape">
	<path class="st1" d="M37,51.9c0.9-5.6,3.9-10.5,8.4-13.9c9.2-6.8,22.2-4.9,29.2,4l3.6,5.4L58,62.4c-1,0.8-1.3,2.2-0.5,3.3l4.2,5.7
		c0.8,1,2.2,1.3,3.3,0.5l19.8-14.7l2,3L70.5,72.2C66,75.6,60.4,77,54.8,76.1c-5.6-0.9-10.5-3.8-13.9-8.4
		C37.5,63.1,36.2,57.5,37,51.9z M31.4,74.7c5.2,7.1,12.9,11.8,21.6,13.1c8.7,1.3,17.4-0.8,24.5-6L93.3,70l2.5,3.7
		c0.2,0.2,0.3,0.5,0.4,0.7l0.3,0.4c0.2,0.3,0.3,0.5,0.5,0.8l0.1,0.1l0,0c10.9,13.9,31.1,16.8,45.5,6.2c7.1-5.2,11.8-12.9,13.1-21.6
		c1.3-8.7-0.8-17.4-6-24.5c-5.2-7.1-12.9-11.7-21.6-13.1c-8.7-1.3-17.4,0.8-24.5,6L87.8,40.4l-2.6-3.9c-0.1-0.1-0.1-0.2-0.2-0.4
		l-0.3-0.5C73.8,21,53.1,17.8,38.5,28.6c-7.1,5.2-11.8,12.9-13.1,21.6C24.1,58.9,26.2,67.6,31.4,74.7z M102.9,62.8l20.6-15.3
		c1-0.8,1.1-6.7,0.3-7.7l0,0c-0.8-1-6.2-2.5-7.3-1.8L96.3,53l-2-2.9l16.1-11.9c4.6-3.3,10.2-4.7,15.8-3.9c5.6,0.9,10.5,3.8,13.9,8.4
		c3.3,4.6,4.7,10.2,3.9,15.8c-0.9,5.6-3.8,10.5-8.4,13.9c-8.7,6.4-20.7,5.1-27.9-2.5L102.9,62.8z"/>
</g>
<g id="Outer_Shadows">
	
		<linearGradient id="SVGID_1_" gradientUnits="userSpaceOnUse" x1="-1439.2982" y1="1450.9714" x2="-1387.7664" y2="1429.0975" gradientTransform="matrix(-1 0 0 1 -1342.6672 -1371.0264)">
		<stop  offset="0" style="stop-color:#1D96AA;stop-opacity:0"/>
		<stop  offset="0.1887" style="stop-color:#1C91A6;stop-opacity:0.1887"/>
		<stop  offset="0.409" style="stop-color:#18839B;stop-opacity:0.409"/>
		<stop  offset="0.6451" style="stop-color:#136C88;stop-opacity:0.6451"/>
		<stop  offset="0.8907" style="stop-color:#0B4B6E;stop-opacity:0.8907"/>
		<stop  offset="1" style="stop-color:#073A60"/>
	</linearGradient>
	<path class="st2" d="M80.4,64.9c0,0-24.2,22.2-44.4,14.7c0,0,6.8,7.2,18.7,8.4c0,0,9.4,1.4,19.3-4c0,0,6.9-4.7,17.9-12.9l12.4-9.2
		l-7.4-9.2L80.4,64.9z"/>
	
		<linearGradient id="SVGID_00000016073959327010926160000004389419325190171013_" gradientUnits="userSpaceOnUse" x1="1810.1837" y1="-2111.2383" x2="1855.6774" y2="-2130.5493" gradientTransform="matrix(1 0 0 -1 -1717.0391 -2083.4343)">
		<stop  offset="0" style="stop-color:#1D96AA;stop-opacity:0"/>
		<stop  offset="0.1887" style="stop-color:#1C91A6;stop-opacity:0.1887"/>
		<stop  offset="0.409" style="stop-color:#18839B;stop-opacity:0.409"/>
		<stop  offset="0.6451" style="stop-color:#136C88;stop-opacity:0.6451"/>
		<stop  offset="0.8907" style="stop-color:#0B4B6E;stop-opacity:0.8907"/>
		<stop  offset="1" style="stop-color:#073A60"/>
	</linearGradient>
	<path style="fill:url(#SVGID_00000016073959327010926160000004389419325190171013_);" d="M108.8,39.4c0,0,18.5-15.2,36.6-8.3
		c0,0-5.6-6.4-17.4-8.4c0,0-11.3-2-21.3,4c0,0-5.2,3.4-17.9,12.9l-1,0.7l7.1,9.2L108.8,39.4z"/>
</g>
<g id="Shadows">
	
		<linearGradient id="SVGID_00000162317796269916191900000009607666123639171498_" gradientUnits="userSpaceOnUse" x1="1746.3315" y1="-2153.2102" x2="1752.0332" y2="-2158.9119" gradientTransform="matrix(1 0 0 -1 -1649.3164 -2086.9519)">
		<stop  offset="0" style="stop-color:#003A43;stop-opacity:0.86"/>
		<stop  offset="1" style="stop-color:#1D96AA;stop-opacity:0"/>
	</linearGradient>
	
		<polyline style="fill-rule:evenodd;clip-rule:evenodd;fill:url(#SVGID_00000162317796269916191900000009607666123639171498_);" points="
		102.9,62.8 93.3,70 97,75.6 106.5,68.1 	"/>
	
		<linearGradient id="SVGID_00000022557859145241528810000007500876281544034230_" gradientUnits="userSpaceOnUse" x1="1047.4891" y1="-2322.8425" x2="1052.9862" y2="-2328.3396" gradientTransform="matrix(7.160000e-02 -0.9974 -0.9974 -7.160000e-02 -2301.125 924.3433)">
		<stop  offset="0" style="stop-color:#003A43;stop-opacity:0.86"/>
		<stop  offset="1" style="stop-color:#1D96AA;stop-opacity:0"/>
	</linearGradient>
	
		<polyline style="fill-rule:evenodd;clip-rule:evenodd;fill:url(#SVGID_00000022557859145241528810000007500876281544034230_);" points="
		87.8,40.4 94.3,50.1 99.5,46.3 92.9,36.6 	"/>
	
		<linearGradient id="SVGID_00000081609801384696129940000005288978882926869929_" gradientUnits="userSpaceOnUse" x1="1578.8411" y1="-1453.1108" x2="1584.374" y2="-1458.6438" gradientTransform="matrix(-7.160000e-02 0.9974 0.9974 7.160000e-02 1644.2635 -1419.0365)">
		<stop  offset="0" style="stop-color:#003A43;stop-opacity:0.86"/>
		<stop  offset="1" style="stop-color:#1D96AA;stop-opacity:0"/>
	</linearGradient>
	
		<polyline style="fill-rule:evenodd;clip-rule:evenodd;fill:url(#SVGID_00000081609801384696129940000005288978882926869929_);" points="
		84.8,57.2 78.2,47.4 73,51.3 79.6,61 	"/>
	
		<linearGradient id="SVGID_00000008854816423770222370000006902103046699545269_" gradientUnits="userSpaceOnUse" x1="912.2804" y1="-1527.0143" x2="917.9714" y2="-1532.7053" gradientTransform="matrix(-1 0 0 1 1004.9178 1583.8447)">
		<stop  offset="0" style="stop-color:#003A43;stop-opacity:0.86"/>
		<stop  offset="1" style="stop-color:#1D96AA;stop-opacity:0"/>
	</linearGradient>
	
		<polyline style="fill-rule:evenodd;clip-rule:evenodd;fill:url(#SVGID_00000008854816423770222370000006902103046699545269_);" points="
		86.7,60.2 96.4,53.1 92.6,47.6 83.2,54.9 	"/>
</g>
<g id="Mask" class="st8">
	<polygon class="st9" points="102.9,62.8 93.3,70 86.7,60.2 96.3,53 	"/>
	<polygon class="st9" points="94.3,50.1 84.8,57.2 78.2,47.4 87.8,40.4 	"/>
</g>
<g id="Layer_6" class="st8">
	<path class="st10" d="M120.2,42.4l-51,37.1c-0.8,0.6-1.7,1-2.6,1.2C53,83.6,43.2,81.6,35.1,70.4c-5.7-7.9-5.5-18.6-1.6-26.8
		c1-2.1,4.2-8.5,11.8-12.3c9.9-5,19.6-1.8,21.9-1c4.4,1.5,8.3,3.9,13,8.4l23.7,36c7.3,5.7,19.6,9.6,30.2,4.8
		c10.6-4.8,17.9-17.5,15.4-29.9c-2.4-11.9-12.8-17.5-14-18.1c-9-4.7-22-2-24.1-1.4L60.8,67.7"/>
</g>
</svg>
